<svg width="1128" height="465" viewBox="0 0 1128 465" fill="none" xmlns="http://www.w3.org/2000/svg">
<path d="M256.254 12C256.254 5.37259 261.627 0 268.254 0H855.396C862.024 0 867.396 5.37258 867.396 12V413.19C867.396 419.817 862.024 425.19 855.396 425.19H268.254C261.627 425.19 256.254 419.817 256.254 413.19V318.892V212.595V12Z" fill="#1E2438"/>
<path d="M193.182 416.053C193.182 413.292 195.421 411.053 198.182 411.053H905.894C908.655 411.053 910.894 413.292 910.894 416.053V432.968C910.894 433.577 910.785 434.179 910.549 434.74C909.824 436.468 908.038 440.409 906.001 442.589C901.284 447.635 889.908 448.931 888.258 449.095C888.12 449.108 887.984 449.114 887.845 449.114C608.132 449.114 488.434 450.198 209.119 450.201C208.308 450.201 207.489 450.006 206.784 449.605C204.864 448.513 200.85 446.082 198.62 443.676C196.598 441.495 194.582 437.759 193.677 435.978C193.343 435.321 193.182 434.595 193.182 433.858V416.053Z" fill="#0C2A38"/>
<path d="M193.182 416.053C193.182 413.292 195.421 411.053 198.182 411.053H905.894C908.655 411.053 910.894 413.292 910.894 416.053V433.889H193.182V416.053Z" fill="white"/>
<path d="M276.915 30.6614C276.915 25.1386 281.392 20.6614 286.915 20.6614H836.735C842.258 20.6614 846.735 25.1385 846.735 30.6614V381.692H276.915V30.6614Z" fill="#E0E0E0"/>
<rect x="509.628" y="419.753" width="85.9079" height="7.61209" rx="3" fill="#242F43"/>
<g filter="url(#filter0_d)">
<rect x="303" y="72" width="206" height="57" fill="white"/>
<rect x="310.589" y="81.6792" width="54.2105" height="5.37736" fill="#1E2438"/>
<rect x="310.589" y="101.038" width="133.358" height="5.37736" fill="#1E2438"/>
<rect x="310.589" y="113.943" width="133.358" height="5.37736" fill="#1E2438"/>
<rect x="310.589" y="91.3585" width="5.42105" height="5.37736" fill="#1E2438"/>
<rect x="320.347" y="91.3585" width="5.42105" height="5.37736" fill="#1E2438"/>
<rect x="330.105" y="91.3585" width="5.42105" height="5.37736" fill="#1E2438"/>
<rect x="339.863" y="91.3585" width="5.42105" height="5.37736" fill="#1E2438"/>
</g>
<g filter="url(#filter1_d)">
<rect x="303" y="139" width="206" height="57" fill="white"/>
<rect x="310.589" y="148.679" width="54.2105" height="5.37736" fill="#1E2438"/>
<rect x="310.589" y="168.038" width="133.358" height="5.37736" fill="#1E2438"/>
<rect x="310.589" y="180.943" width="133.358" height="5.37736" fill="#1E2438"/>
<rect x="310.589" y="158.358" width="5.42105" height="5.37736" fill="#1E2438"/>
<rect x="320.347" y="158.358" width="5.42105" height="5.37736" fill="#1E2438"/>
<rect x="330.105" y="158.358" width="5.42105" height="5.37736" fill="#1E2438"/>
<rect x="339.863" y="158.358" width="5.42105" height="5.37736" fill="#1E2438"/>
</g>
<g filter="url(#filter2_d)">
<rect x="303" y="206" width="206" height="59" fill="white"/>
<rect x="310.589" y="216.019" width="54.2105" height="5.56604" fill="#1E2438"/>
<rect x="310.589" y="236.057" width="133.358" height="5.56604" fill="#1E2438"/>
<rect x="310.589" y="249.415" width="133.358" height="5.56604" fill="#1E2438"/>
<rect x="310.589" y="226.038" width="5.42105" height="5.56604" fill="#1E2438"/>
<rect x="320.347" y="226.038" width="5.42105" height="5.56604" fill="#1E2438"/>
<rect x="330.105" y="226.038" width="5.42105" height="5.56604" fill="#1E2438"/>
<rect x="339.863" y="226.038" width="5.42105" height="5.56604" fill="#1E2438"/>
</g>
<g filter="url(#filter3_d)">
<rect x="303" y="273" width="206" height="59" fill="white"/>
<rect x="310.589" y="283.019" width="54.2105" height="5.56604" fill="#1E2438"/>
<rect x="310.589" y="303.057" width="133.358" height="5.56604" fill="#1E2438"/>
<rect x="310.589" y="316.415" width="133.358" height="5.56604" fill="#1E2438"/>
<rect x="310.589" y="293.038" width="5.42105" height="5.56604" fill="#1E2438"/>
<rect x="320.347" y="293.038" width="5.42105" height="5.56604" fill="#1E2438"/>
<rect x="330.105" y="293.038" width="5.42105" height="5.56604" fill="#1E2438"/>
<rect x="339.863" y="293.038" width="5.42105" height="5.56604" fill="#1E2438"/>
</g>
<rect x="912" y="184" width="159" height="6" rx="3" fill="#0C2A38"/>
<rect y="449" width="1094" height="6" rx="3" fill="#0C2A38"/>
<rect x="34" y="454" width="1094" height="6" rx="3" fill="#0C2A38"/>
<rect y="459" width="1094" height="6" rx="3" fill="#0C2A38"/>
<g clip-path="url(#clip0)">
<path d="M968.256 142.869C968.313 142.264 968.143 141.659 967.779 141.172C967.415 140.686 966.883 140.352 966.286 140.235L915.964 130.517L915.963 130.523C915.375 130.427 914.772 130.548 914.268 130.864C913.763 131.18 913.391 131.669 913.222 132.24L913.197 132.235L905.413 172.541L905.462 172.55C905.468 173.105 905.662 173.641 906.012 174.072C906.362 174.502 906.847 174.802 907.389 174.921L907.388 174.928L915.66 176.525L914.729 181.35C914.629 181.867 914.697 182.403 914.925 182.878C915.152 183.353 915.526 183.742 915.992 183.989C916.458 184.235 916.99 184.325 917.511 184.246C918.032 184.167 918.513 183.923 918.885 183.549L926.248 178.569L957.71 184.645C958.267 184.753 958.843 184.665 959.343 184.395C959.842 184.126 960.232 183.693 960.448 183.168L960.497 183.178L968.281 142.873L968.256 142.869ZM920.627 158.697C918.442 158.274 916.819 156.177 917.403 153.153C918.077 149.663 920.587 146.915 923.867 145.426L923.875 145.436C923.954 145.412 924.037 145.406 924.118 145.42C924.23 145.444 924.331 145.504 924.405 145.591L924.411 145.587L926.109 147.181L926.096 147.19C926.215 147.31 926.281 147.478 926.247 147.657C926.228 147.75 926.184 147.837 926.119 147.907C926.054 147.978 925.972 148.029 925.88 148.056L925.881 148.057L925.845 148.071L925.835 148.074C924.203 148.593 922.273 150.151 921.538 151.731C921.742 151.674 922.123 151.699 922.496 151.771C924.263 152.113 925.398 153.731 925.012 155.731C924.626 157.732 922.627 159.083 920.627 158.697ZM930.093 160.525C927.908 160.103 926.286 158.005 926.87 154.981C927.544 151.491 930.053 148.744 933.333 147.254L933.341 147.265C933.42 147.24 933.504 147.234 933.585 147.249C933.697 147.272 933.797 147.333 933.871 147.42L933.878 147.416L935.576 149.009L935.562 149.018C935.681 149.138 935.748 149.306 935.713 149.485C935.694 149.579 935.65 149.665 935.585 149.735C935.521 149.806 935.438 149.857 935.347 149.884L935.348 149.886L935.311 149.899L935.301 149.903C933.669 150.421 931.739 151.98 931.005 153.559C931.208 153.502 931.589 153.527 931.962 153.599C933.73 153.941 934.864 155.559 934.478 157.559C934.092 159.56 932.094 160.911 930.093 160.525ZM940.42 167.852L940.412 167.842C940.333 167.866 940.25 167.872 940.169 167.858C940.057 167.834 939.956 167.774 939.883 167.687L939.876 167.691L938.178 166.097L938.191 166.088C938.13 166.029 938.084 165.955 938.057 165.874C938.031 165.792 938.025 165.706 938.04 165.621C938.079 165.423 938.226 165.278 938.407 165.222L938.406 165.221L938.443 165.207L938.452 165.204C940.085 164.685 942.014 163.127 942.749 161.547C942.545 161.604 942.164 161.579 941.791 161.507C940.024 161.165 938.889 159.548 939.275 157.547C939.662 155.547 941.661 154.196 943.661 154.582C945.846 155.004 947.468 157.102 946.884 160.126C946.21 163.615 943.7 166.363 940.42 167.852ZM949.887 169.68L949.879 169.67C949.8 169.695 949.716 169.7 949.635 169.686C949.523 169.662 949.423 169.602 949.349 169.515L949.342 169.519L947.644 167.925L947.658 167.917C947.596 167.857 947.55 167.783 947.524 167.702C947.497 167.621 947.492 167.534 947.507 167.45C947.545 167.251 947.693 167.106 947.873 167.051L947.872 167.049L947.909 167.035L947.919 167.032C949.551 166.513 951.481 164.955 952.215 163.375C952.012 163.432 951.631 163.407 951.258 163.335C949.49 162.994 948.356 161.376 948.742 159.376C949.128 157.375 951.127 156.024 953.127 156.411C955.313 156.833 956.935 158.931 956.351 161.954C955.676 165.443 953.167 168.191 949.887 169.68Z" fill="#0C2A38"/>
</g>
<g filter="url(#filter4_d)">
<rect x="519" y="72" width="302" height="260" fill="white"/>
</g>
<path d="M701.801 225.814H653.463L643.536 234.289L633.609 225.814H612.699V231.625C612.699 239.032 617.815 245.066 624.141 245.185C624.73 248.845 626.154 252.153 628.296 254.741C631.466 258.569 636.073 260.681 641.269 260.681H673.23C678.426 260.681 683.034 258.569 686.203 254.736C688.346 252.148 689.77 248.841 690.358 245.18C693.719 245.119 696.738 243.388 698.832 240.669C700.788 238.062 701.832 234.884 701.801 231.625V225.814Z" fill="#1E2438"/>
<path d="M634.248 218.066L643.528 224.892L652.891 218.066H701.801V216.129C701.798 213.898 701.026 211.735 699.615 210.006C698.203 208.277 696.239 207.088 694.053 206.638C693.854 199.449 690.905 193.433 685.455 189.205C680.414 185.273 673.678 183.2 665.966 183.2H648.533C632.015 183.2 620.827 192.588 620.447 206.638C618.261 207.088 616.296 208.277 614.885 210.006C613.473 211.735 612.701 213.898 612.699 216.129V218.066H634.248Z" fill="#1E2438"/>
<path d="M720.948 163.83H702.888L705.048 155.196L715.844 151.482L713.423 144.46L698.411 149.303L694.903 163.83H659.187V171.578H663.727L664.177 175.452H665.966C675.409 175.452 683.801 178.091 690.208 183.084C693.771 185.83 696.66 189.354 698.653 193.387C699.882 195.889 700.756 198.549 701.251 201.292C704.859 203.513 707.535 206.973 708.778 211.023C710.02 215.074 709.745 219.439 708.004 223.301C709.024 225.958 709.548 228.78 709.549 231.625C709.549 237.035 707.709 242.189 704.367 246.141C702.3 248.604 699.651 250.514 696.661 251.698C695.641 254.602 694.123 257.306 692.174 259.688C691.888 260.032 691.595 260.368 691.295 260.693H709.549C713.423 260.693 715.118 258.756 715.602 255.124L724.415 171.59H728.919V163.83H720.948Z" fill="#1E2438"/>
<path d="M955.479 391.392H1028.34V439.026C1028.34 444.549 1023.86 449.026 1018.34 449.026H965.479C959.956 449.026 955.479 444.549 955.479 439.026V391.392Z" fill="#0C2A38"/>
<path fill-rule="evenodd" clip-rule="evenodd" d="M1033.77 445.764C1047.59 445.764 1058.79 434.566 1058.79 420.753C1058.79 406.939 1047.59 395.741 1033.77 395.741C1019.96 395.741 1008.76 406.939 1008.76 420.753C1008.76 434.566 1019.96 445.764 1033.77 445.764ZM1033.77 438.152C1043.38 438.152 1051.17 430.362 1051.17 420.753C1051.17 411.143 1043.38 403.353 1033.77 403.353C1024.17 403.353 1016.38 411.143 1016.38 420.753C1016.38 430.362 1024.17 438.152 1033.77 438.152Z" fill="#0C2A38"/>
<path d="M92.3921 420.125H51.8402L43.5121 427.098L35.184 420.125H17.6421V424.906C17.6421 431 21.9341 435.965 27.2418 436.062C27.7354 439.075 28.9297 441.796 30.7274 443.926C33.3863 447.075 37.2518 448.812 41.6108 448.812H68.4233C72.7824 448.812 76.6479 447.075 79.3068 443.922C81.1044 441.792 82.2988 439.071 82.7924 436.059C85.6118 436.009 88.1448 434.584 89.9018 432.347C91.5428 430.202 92.418 427.587 92.3921 424.906V420.125Z" fill="#0C2A38"/>
<path d="M35.7202 413.75L43.506 419.366L51.3608 413.75H92.3921V412.156C92.3898 410.32 91.7421 408.54 90.558 407.118C89.374 405.695 87.7261 404.717 85.8921 404.347C85.7255 398.432 83.2515 393.481 78.6791 390.003C74.4501 386.768 68.7991 385.062 62.3296 385.062H47.7046C33.8474 385.062 24.461 392.786 24.1421 404.347C22.3081 404.717 20.6602 405.695 19.4762 407.118C18.2921 408.54 17.6444 410.32 17.6421 412.156V413.75H35.7202Z" fill="#0C2A38"/>
<path d="M108.455 369.125H93.3041L95.116 362.021L104.173 358.965L102.142 353.188L89.5483 357.172L86.6051 369.125H56.6421V375.5H60.4507L60.8285 378.688H62.3296C70.2515 378.688 77.2918 380.859 82.6665 384.967C85.6559 387.226 88.0793 390.125 89.7515 393.444C90.7819 395.502 91.5154 397.691 91.931 399.948C94.9578 401.776 97.2023 404.622 98.2449 407.955C99.2875 411.288 99.0569 414.879 97.5962 418.057C98.452 420.243 98.8913 422.565 98.8921 424.906C98.8921 429.357 97.3483 433.598 94.5452 436.849C92.8105 438.876 90.5885 440.448 88.0797 441.421C87.2248 443.811 85.951 446.036 84.3158 447.996C84.0762 448.279 83.8304 448.556 83.5785 448.822H98.8921C102.142 448.822 103.564 447.229 103.97 444.24L111.364 375.51H115.142V369.125H108.455Z" fill="#0C2A38"/>
<g clip-path="url(#clip1)">
<path d="M1056.4 183.653C1056.4 183.653 1070.12 148.602 1061.77 130.821C1058.69 124.263 1053.13 119.196 1046.31 116.737C1039.5 114.277 1031.98 114.626 1025.43 117.706C1018.87 120.787 1013.8 126.347 1011.34 133.163C1008.88 139.979 1009.23 147.493 1012.31 154.052C1020.66 171.833 1056.4 183.653 1056.4 183.653ZM1042.85 154.802C1039.57 156.342 1035.81 156.516 1032.4 155.287C1029 154.057 1026.22 151.524 1024.68 148.244C1023.14 144.965 1022.96 141.208 1024.19 137.8C1025.42 134.392 1027.95 131.612 1031.23 130.072C1034.51 128.531 1038.27 128.357 1041.68 129.587C1045.09 130.816 1047.87 133.35 1049.41 136.629C1050.95 139.908 1051.12 143.665 1049.89 147.073C1048.66 150.481 1046.13 153.261 1042.85 154.802Z" fill="#0C2A38"/>
</g>
<path d="M959 338.472C959 334.796 960.18 331.506 962.539 328.602C964.898 325.699 967.887 323.855 971.507 323.07C972.53 318.66 974.833 315.045 978.415 312.227C981.997 309.409 986.098 308 990.716 308C995.209 308 999.228 309.378 1002.77 312.135C1006.32 314.892 1008.61 318.402 1009.66 322.666H1010.75C1015.24 322.666 1019.07 324.204 1022.24 327.279C1025.41 330.355 1027 334.085 1027 338.472C1027 340.824 1026.51 343.048 1025.52 345.143C1024.53 347.238 1023.17 349.033 1021.42 350.528V350.638C1021.42 352.966 1020.68 355.043 1019.19 356.869C1017.71 358.694 1015.84 359.852 1013.59 360.342C1013.02 362.793 1011.81 364.864 1009.96 366.554C1008.12 368.245 1005.94 369.287 1003.45 369.679C1004.6 371.027 1005.17 372.509 1005.17 374.126C1005.17 376.013 1004.49 377.631 1003.13 378.978C1001.77 380.326 1000.13 381 998.205 381C996.283 381 994.641 380.326 993.281 378.978C991.92 377.631 991.24 376.013 991.24 374.126C991.24 373.367 991.377 372.619 991.652 371.884H991.24C988.919 371.884 986.921 371.063 985.249 369.421C983.576 367.78 982.74 365.819 982.74 363.54C982.74 361.972 983.14 360.575 983.938 359.35C981.866 358.223 980.369 356.593 979.445 354.461H974.352V354.424C970.059 354.155 966.427 352.489 963.456 349.425C960.485 346.362 959 342.711 959 338.472ZM964.579 337.516C964.579 340.653 965.703 343.324 967.949 345.529C970.196 347.735 972.905 348.837 976.075 348.837C978.047 348.837 979.869 348.396 981.542 347.514C982.016 350.43 983.402 352.856 985.698 354.792C987.995 356.728 990.691 357.696 993.786 357.696C997.256 357.696 1000.21 356.495 1002.66 354.094C1004.31 355.956 1006.36 356.887 1008.8 356.887C1011.07 356.887 1013.01 356.097 1014.62 354.516C1016.23 352.936 1017.04 351.031 1017.04 348.801C1018.64 347.747 1019.9 346.393 1020.82 344.739C1021.75 343.085 1022.21 341.29 1022.21 339.354C1022.21 336.242 1021.07 333.601 1018.8 331.433C1016.53 329.264 1013.79 328.18 1010.6 328.18C1008.38 328.18 1006.34 328.756 1004.5 329.907C1004.72 328.952 1004.83 327.922 1004.83 326.82C1004.83 323.046 1003.46 319.836 1000.71 317.189C997.968 314.543 994.648 313.22 990.753 313.22C987.009 313.22 983.776 314.494 981.055 317.042C978.334 319.591 976.911 322.691 976.786 326.342C976.711 326.342 976.599 326.336 976.449 326.324C976.3 326.311 976.175 326.305 976.075 326.305C972.93 326.305 970.227 327.402 967.968 329.595C965.709 331.788 964.579 334.428 964.579 337.516Z" fill="#0C2A38"/>
<defs>
<filter id="filter0_d" x="301" y="72" width="210" height="61" filterUnits="userSpaceOnUse" color-interpolation-filters="sRGB">
<feFlood flood-opacity="0" result="BackgroundImageFix"/>
<feColorMatrix in="SourceAlpha" type="matrix" values="0 0 0 0 0 0 0 0 0 0 0 0 0 0 0 0 0 0 127 0"/>
<feOffset dy="2"/>
<feGaussianBlur stdDeviation="1"/>
<feColorMatrix type="matrix" values="0 0 0 0 0.5 0 0 0 0 0.5 0 0 0 0 0.5 0 0 0 0.25 0"/>
<feBlend mode="normal" in2="BackgroundImageFix" result="effect1_dropShadow"/>
<feBlend mode="normal" in="SourceGraphic" in2="effect1_dropShadow" result="shape"/>
</filter>
<filter id="filter1_d" x="301" y="139" width="210" height="61" filterUnits="userSpaceOnUse" color-interpolation-filters="sRGB">
<feFlood flood-opacity="0" result="BackgroundImageFix"/>
<feColorMatrix in="SourceAlpha" type="matrix" values="0 0 0 0 0 0 0 0 0 0 0 0 0 0 0 0 0 0 127 0"/>
<feOffset dy="2"/>
<feGaussianBlur stdDeviation="1"/>
<feColorMatrix type="matrix" values="0 0 0 0 0.5 0 0 0 0 0.5 0 0 0 0 0.5 0 0 0 0.25 0"/>
<feBlend mode="normal" in2="BackgroundImageFix" result="effect1_dropShadow"/>
<feBlend mode="normal" in="SourceGraphic" in2="effect1_dropShadow" result="shape"/>
</filter>
<filter id="filter2_d" x="301" y="206" width="210" height="63" filterUnits="userSpaceOnUse" color-interpolation-filters="sRGB">
<feFlood flood-opacity="0" result="BackgroundImageFix"/>
<feColorMatrix in="SourceAlpha" type="matrix" values="0 0 0 0 0 0 0 0 0 0 0 0 0 0 0 0 0 0 127 0"/>
<feOffset dy="2"/>
<feGaussianBlur stdDeviation="1"/>
<feColorMatrix type="matrix" values="0 0 0 0 0.5 0 0 0 0 0.5 0 0 0 0 0.5 0 0 0 0.25 0"/>
<feBlend mode="normal" in2="BackgroundImageFix" result="effect1_dropShadow"/>
<feBlend mode="normal" in="SourceGraphic" in2="effect1_dropShadow" result="shape"/>
</filter>
<filter id="filter3_d" x="301" y="273" width="210" height="63" filterUnits="userSpaceOnUse" color-interpolation-filters="sRGB">
<feFlood flood-opacity="0" result="BackgroundImageFix"/>
<feColorMatrix in="SourceAlpha" type="matrix" values="0 0 0 0 0 0 0 0 0 0 0 0 0 0 0 0 0 0 127 0"/>
<feOffset dy="2"/>
<feGaussianBlur stdDeviation="1"/>
<feColorMatrix type="matrix" values="0 0 0 0 0.5 0 0 0 0 0.5 0 0 0 0 0.5 0 0 0 0.25 0"/>
<feBlend mode="normal" in2="BackgroundImageFix" result="effect1_dropShadow"/>
<feBlend mode="normal" in="SourceGraphic" in2="effect1_dropShadow" result="shape"/>
</filter>
<filter id="filter4_d" x="517" y="72" width="306" height="264" filterUnits="userSpaceOnUse" color-interpolation-filters="sRGB">
<feFlood flood-opacity="0" result="BackgroundImageFix"/>
<feColorMatrix in="SourceAlpha" type="matrix" values="0 0 0 0 0 0 0 0 0 0 0 0 0 0 0 0 0 0 127 0"/>
<feOffset dy="2"/>
<feGaussianBlur stdDeviation="1"/>
<feColorMatrix type="matrix" values="0 0 0 0 0.5 0 0 0 0 0.5 0 0 0 0 0.5 0 0 0 0.25 0"/>
<feBlend mode="normal" in2="BackgroundImageFix" result="effect1_dropShadow"/>
<feBlend mode="normal" in="SourceGraphic" in2="effect1_dropShadow" result="shape"/>
</filter>
<clipPath id="clip0">
<rect width="72.8586" height="72.8586" fill="white" transform="translate(907.31 118.531) rotate(10.9306)"/>
</clipPath>
<clipPath id="clip1">
<rect width="72.8586" height="72.8586" fill="white" transform="translate(992.452 133.193) rotate(-25.1585)"/>
</clipPath>
</defs>
</svg>
